<svg xmlns="http://www.w3.org/2000/svg" xmlns:xlink="http://www.w3.org/1999/xlink" width="1200" height="1200" viewBox="0 0 1200 1200"><g><g transform="translate(600 600) scale(0.69 0.69) rotate(0) translate(-600 -600)" style="fill:#0066CC;"><svg fill="#0066CC" xmlns="http://www.w3.org/2000/svg" viewBox="0 0 48 48" x="0px" y="0px"><title>2-Developer data</title><g data-name="2-Developer data"><path d="M40,0H17a1,1,0,0,0-.734.322l-12,13A1,1,0,0,0,4,14V44a4,4,0,0,0,4,4H40a4,4,0,0,0,4-4V4A4,4,0,0,0,40,0Zm2,44a2,2,0,0,1-2,2H8a2,2,0,0,1-2-2V14.39L16,3.554V11a2,2,0,0,1-2,2H9v2h5a4,4,0,0,0,4-4V2H40a2,2,0,0,1,2,2Z"></path><path d="M32.138,32.032l-2.912-1.82A2.594,2.594,0,0,1,28,28v-.54A5.983,5.983,0,0,0,30,23V19a6,6,0,0,0-12,0v4a5.983,5.983,0,0,0,2,4.46V28a2.594,2.594,0,0,1-1.226,2.212l-2.912,1.82A8.17,8.17,0,0,0,12,39v5h2V39a6.181,6.181,0,0,1,2.922-5.272l2.912-1.82a4.578,4.578,0,0,0,2.121-3.275,5.881,5.881,0,0,0,4.09,0,4.578,4.578,0,0,0,2.121,3.275l2.912,1.82A6.181,6.181,0,0,1,34,39v5h2V39A8.17,8.17,0,0,0,32.138,32.032ZM20,23V20h3V18H20.142a3.981,3.981,0,0,1,7.716,0H25a1,1,0,0,0-1,1v3H23v2h2a1,1,0,0,0,1-1V20h2v3a4,4,0,0,1-8,0Z"></path><path d="M30,38H25v2h4v2h2V39A1,1,0,0,0,30,38Z"></path><rect x="21" y="5" width="13" height="2"></rect><rect x="36" y="5" width="3" height="2"></rect><rect x="31" y="9" width="8" height="2"></rect><rect x="35" y="13" width="4" height="2"></rect></g></svg></g></g></svg>